<?xml version="1.0" encoding="UTF-8" standalone="no"?>
<svg
   xmlns:dc="http://purl.org/dc/elements/1.1/"
   xmlns:cc="http://creativecommons.org/ns#"
   xmlns:rdf="http://www.w3.org/1999/02/22-rdf-syntax-ns#"
   xmlns:svg="http://www.w3.org/2000/svg"
   xmlns="http://www.w3.org/2000/svg"
   xmlns:sodipodi="http://sodipodi.sourceforge.net/DTD/sodipodi-0.dtd"
   xmlns:inkscape="http://www.inkscape.org/namespaces/inkscape"
   width="23.999689"
   height="24.000395"
   viewBox="0 0 6.349918 6.3501046"
   version="1.1"
   id="svg8"
   inkscape:version="1.0.1 (3bc2e813f5, 2020-09-07)"
   sodipodi:docname="logo-beans.svg">
  <defs
     id="defs2" />
  <sodipodi:namedview
     id="base"
     pagecolor="#ffffff"
     bordercolor="#666666"
     borderopacity="1.0"
     inkscape:pageopacity="0.0"
     inkscape:pageshadow="2"
     inkscape:zoom="2.8"
     inkscape:cx="20.844242"
     inkscape:cy="37.513608"
     inkscape:document-units="mm"
     inkscape:current-layer="layer2"
     inkscape:document-rotation="0"
     showgrid="false"
     inkscape:window-width="1920"
     inkscape:window-height="1017"
     inkscape:window-x="1432"
     inkscape:window-y="-8"
     inkscape:window-maximized="1"
     fit-margin-top="0"
     fit-margin-left="0"
     fit-margin-right="0"
     fit-margin-bottom="0"
     units="px" />
  <metadata
     id="metadata5">
    <rdf:RDF>
      <cc:Work
         rdf:about="">
        <dc:format>image/svg+xml</dc:format>
        <dc:type
           rdf:resource="http://purl.org/dc/dcmitype/StillImage" />
        <dc:title></dc:title>
      </cc:Work>
    </rdf:RDF>
  </metadata>
  <g
     inkscape:label="Layer 1"
     inkscape:groupmode="layer"
     id="layer1"
     transform="translate(-95.816341,-121.41953)"
     sodipodi:insensitive="true"
     style="display:none">
    <path
       d="m 71.519095,127.76162 c 0.345017,0 0.646642,-0.0627 0.905405,-0.18785 0.258762,-0.12541 0.464343,-0.29739 0.616743,-0.51594 0.1524,-0.21881 0.239977,-0.47096 0.262996,-0.75671 0.0029,-0.0526 -0.005,-0.0913 -0.02381,-0.11588 a 0.09895417,0.09895417 0 0 0 -0.07091,-0.0415 0.16483541,0.16483541 0 0 0 -0.07144,0.0175 c -0.02434,0.0116 -0.05821,0.0378 -0.101071,0.0786 -0.07779,0.1487 -0.188383,0.25453 -0.332052,0.31724 -0.143933,0.0627 -0.321998,0.0939 -0.534723,0.0939 -0.212725,0 -0.402431,-0.0556 -0.569383,-0.16616 -0.166688,-0.11086 -0.298186,-0.27701 -0.394494,-0.49847 -0.09631,-0.22172 -0.144463,-0.49583 -0.144463,-0.82233 0,-0.22754 0.0209,-0.4183 0.06244,-0.57282 0.0418,-0.15451 0.100542,-0.2704 0.177006,-0.34766 0.07594,-0.0773 0.161396,-0.11589 0.256646,-0.11589 0.09472,0 0.168011,0.0365 0.219604,0.10927 0.05186,0.073 0.07779,0.18072 0.07779,0.32359 v 0.27993 c 0,0.23627 0.06085,0.42201 0.183356,0.55774 0.121973,0.13547 0.301096,0.2032 0.53684,0.2032 0.230187,0 0.411691,-0.0661 0.545571,-0.19897 0.133614,-0.13255 0.200289,-0.31564 0.200289,-0.54874 0,-0.22172 -0.06376,-0.42201 -0.191823,-0.6014 -0.127794,-0.17939 -0.313266,-0.32147 -0.556154,-0.42651 -0.243152,-0.10477 -0.541337,-0.15742 -0.894821,-0.15742 -0.414073,0 -0.776287,0.0926 -1.086908,0.27781 a 1.952625,1.952625 0 0 0 -0.726546,0.75671 c -0.173567,0.31882 -0.260879,0.68103 -0.260879,1.08638 0,0.41989 0.08334,0.77628 0.250031,1.06918 a 1.6933333,1.6933333 0 0 0 0.683683,0.67124 c 0.288925,0.15452 0.61595,0.23178 0.981075,0.23178 z m 4.161367,-0.009 c 0.42836,0 0.804333,-0.0889 1.127654,-0.2667 0.323321,-0.1778 0.576527,-0.4191 0.75909,-0.72363 0.182562,-0.3048 0.273579,-0.64955 0.273579,-1.03452 0,-0.40508 -0.08731,-0.76227 -0.262996,-1.07157 a 1.8803937,1.8803937 0 0 0 -0.732896,-0.72575 c -0.313531,-0.17489 -0.679979,-0.26246 -1.099873,-0.26246 -0.422539,0 -0.796395,0.0905 -1.121039,0.27119 -0.324909,0.18071 -0.579438,0.42492 -0.763323,0.73263 -0.18415,0.30745 -0.27596,0.65353 -0.27596,1.03849 0,0.40244 0.08758,0.75671 0.262995,1.06284 a 1.8698104,1.8698104 0 0 0 0.735277,0.7194 c 0.314855,0.17356 0.680509,0.26008 1.097492,0.26008 z m 0.327819,-0.45482 c -0.08916,0.0175 -0.176213,-0.0217 -0.261144,-0.118 -0.08467,-0.0963 -0.1651,-0.25797 -0.2413,-0.48551 -0.0762,-0.22754 -0.14896,-0.52626 -0.217752,-0.89641 -0.06615,-0.37042 -0.103717,-0.67495 -0.112183,-0.91413 -0.0087,-0.23892 0.0085,-0.41963 0.05159,-0.5424 0.04313,-0.12224 0.109273,-0.19368 0.198438,-0.21431 0.08916,-0.0172 0.176212,0.0222 0.260879,0.11827 0.08467,0.0963 0.166158,0.25796 0.243681,0.48551 0.07779,0.22754 0.150813,0.52625 0.219869,0.8964 0.06906,0.37042 0.107156,0.67575 0.1143,0.91626 0.0071,0.24077 -0.01138,0.42201 -0.05609,0.54451 -0.04445,0.1225 -0.111125,0.19235 -0.200288,0.20981 z m 4.704556,0.37624 c 0.135202,0 0.202671,-0.0672 0.202671,-0.20108 0,-0.0582 -0.01588,-0.10425 -0.04736,-0.13785 -0.03175,-0.0336 -0.08043,-0.0548 -0.146579,-0.0635 l -0.370946,-0.0569 a 0.15583958,0.15583958 0 0 1 -0.118533,-0.0786 c -0.02434,-0.0439 -0.03651,-0.10636 -0.03651,-0.18812 v -2.72441 h 0.30612 c 0.160866,0 0.27887,-0.0278 0.353483,-0.0833 0.07488,-0.0553 0.112183,-0.12674 0.112183,-0.21432 0,-0.0582 -0.01799,-0.10107 -0.05397,-0.12885 -0.03598,-0.0278 -0.08678,-0.0415 -0.152929,-0.0415 h -0.638969 l -0.004,-0.023 a 0.52863749,0.52863749 0 0 0 -0.06985,-0.16933 l -0.01852,-0.0286 a 2.1923375,2.1923375 0 0 0 -0.239448,-0.2884 9.7789999,9.7789999 0 0 1 -0.284427,-0.30639 1.7266708,1.7266708 0 0 1 -0.239448,-0.34316 0.83026249,0.83026249 0 0 1 -0.0971,-0.3937 c 0,-0.13706 0.02752,-0.24183 0.08202,-0.31486 0.05477,-0.0728 0.134937,-0.10927 0.241564,-0.10927 0.08334,0 0.145256,0.0238 0.185208,0.0722 0.04048,0.0479 0.06059,0.12303 0.06059,0.2249 v 0.38946 c 0,0.22146 0.06324,0.39952 0.189706,0.5334 0.126471,0.13415 0.293159,0.20109 0.500063,0.20109 0.18706,0 0.340254,-0.0574 0.459316,-0.17251 0.119327,-0.11509 0.179123,-0.28787 0.179123,-0.51832 0,-0.19526 -0.05027,-0.37544 -0.150812,-0.54001 -0.100542,-0.16484 -0.252413,-0.2966 -0.455083,-0.39582 -0.202671,-0.0992 -0.457465,-0.1487 -0.765175,-0.1487 -0.477309,0 -0.845344,0.11457 -1.104107,0.34343 -0.258498,0.22887 -0.387879,0.5342 -0.387879,0.91599 0,0.16034 0.02143,0.29527 0.06456,0.40481 0.04313,0.10901 0.09208,0.2032 0.14658,0.28178 l 0.146579,0.2122 c 0.03254,0.0471 0.05265,0.096 0.06085,0.14711 l 0.0026,0.0257 h -0.378354 a 0.21960416,0.21960416 0 0 0 -0.134409,0.0384 l -0.01429,0.0119 a 0.16853958,0.16853958 0 0 0 -0.05371,0.12912 c 0,0.0524 0.01429,0.0968 0.04286,0.13335 0.0291,0.0363 0.0762,0.0706 0.142346,0.10266 l 0.250296,0.0831 c 0.0545,0.0233 0.09181,0.0489 0.111918,0.0767 a 0.17012708,0.17012708 0 0 1 0.03043,0.10265 v 2.52783 c 0,0.0757 -0.01323,0.13415 -0.03889,0.17463 a 0.19314583,0.19314583 0 0 1 -0.10795,0.0833 l -0.185209,0.0569 a 0.2587625,0.2587625 0 0 0 -0.1143,0.0786 0.20372916,0.20372916 0 0 0 -0.03678,0.127 c 0,0.0611 0.01799,0.10848 0.05397,0.14208 0.03598,0.0333 0.08255,0.0503 0.140229,0.0503 z m 3.010165,0 c 0.134937,0 0.20267,-0.0672 0.20267,-0.20108 0,-0.0582 -0.01588,-0.10425 -0.04763,-0.13785 -0.03148,-0.0336 -0.08043,-0.0548 -0.146579,-0.0635 l -0.370681,-0.0569 a 0.15583958,0.15583958 0 0 1 -0.118533,-0.0786 c -0.02461,-0.0439 -0.03678,-0.10636 -0.03678,-0.18812 v -2.72441 h 0.306122 c 0.161132,0 0.278871,-0.0278 0.353748,-0.0833 0.07461,-0.0553 0.111919,-0.12674 0.111919,-0.21432 0,-0.0582 -0.01773,-0.10107 -0.05371,-0.12885 -0.03598,-0.0278 -0.08705,-0.0415 -0.153194,-0.0415 H 83.13165 l -0.004,-0.023 a 0.52863749,0.52863749 0 0 0 -0.06985,-0.16933 l -0.01852,-0.0286 a 2.1923375,2.1923375 0 0 0 -0.239183,-0.2884 9.7789999,9.7789999 0 0 1 -0.284692,-0.30639 1.7266708,1.7266708 0 0 1 -0.239183,-0.34316 0.83026249,0.83026249 0 0 1 -0.0971,-0.3937 c 0,-0.13706 0.02725,-0.24183 0.08202,-0.31486 0.0545,-0.0728 0.134937,-0.10927 0.2413,-0.10927 0.08334,0 0.14552,0.0238 0.185473,0.0722 0.04022,0.0479 0.06033,0.12303 0.06033,0.2249 v 0.38946 c 0,0.22146 0.0635,0.39952 0.18997,0.5334 0.126471,0.13415 0.293159,0.20109 0.500063,0.20109 0.186796,0 0.339989,-0.0574 0.459317,-0.17251 0.119062,-0.11509 0.178858,-0.28787 0.178858,-0.51832 0,-0.19526 -0.05027,-0.37544 -0.150813,-0.54001 -0.100541,-0.16484 -0.252412,-0.2966 -0.455083,-0.39582 -0.202671,-0.0992 -0.457729,-0.1487 -0.76544,-0.1487 -0.477043,0 -0.845079,0.11457 -1.103841,0.34343 -0.258763,0.22887 -0.388144,0.5342 -0.388144,0.91599 0,0.16034 0.0217,0.29527 0.06482,0.40481 0.04313,0.10901 0.09181,0.2032 0.146579,0.28178 l 0.146579,0.2122 c 0.03228,0.0471 0.05239,0.096 0.06059,0.14711 l 0.0029,0.0257 h -0.378354 a 0.21960416,0.21960416 0 0 0 -0.134673,0.0384 l -0.01402,0.0119 a 0.16853958,0.16853958 0 0 0 -0.05398,0.12912 c 0,0.0524 0.01429,0.0968 0.04313,0.13335 0.02884,0.0363 0.0762,0.0706 0.142346,0.10266 l 0.250031,0.0831 c 0.05477,0.0233 0.09207,0.0489 0.112184,0.0767 a 0.17012708,0.17012708 0 0 1 0.03016,0.10265 v 2.52783 c 0,0.0757 -0.01296,0.13415 -0.03889,0.17463 a 0.19314583,0.19314583 0 0 1 -0.107686,0.0833 l -0.185473,0.0569 a 0.2587625,0.2587625 0 0 0 -0.1143,0.0786 0.20372916,0.20372916 0 0 0 -0.03651,0.127 c 0,0.0611 0.01773,0.10848 0.05371,0.14208 0.03598,0.0333 0.08282,0.0503 0.140229,0.0503 z m 2.410354,0.0873 c 0.365125,0 0.687387,-0.0714 0.966258,-0.21431 0.278871,-0.14287 0.495829,-0.33284 0.650875,-0.5707 0.155575,-0.2376 0.233098,-0.49927 0.233098,-0.78476 0,-0.0556 -0.01005,-0.095 -0.03016,-0.11827 a 0.09339792,0.09339792 0 0 0 -0.07329,-0.0349 0.16933333,0.16933333 0 0 0 -0.07144,0.0196 c -0.02699,0.0132 -0.05821,0.0386 -0.0926,0.0767 -0.06033,0.18653 -0.178858,0.33231 -0.3556,0.43735 -0.176741,0.10478 -0.380206,0.15743 -0.610129,0.15743 -0.359569,0 -0.646906,-0.1233 -0.862542,-0.36962 -0.12647,-0.14447 -0.2159,-0.33682 -0.268023,-0.5768 l -0.0042,-0.0201 h 1.971146 c 0.124883,0 0.222514,-0.0331 0.293687,-0.099 l 0.01693,-0.0169 c 0.07197,-0.0773 0.107685,-0.18309 0.107685,-0.31724 0,-0.30903 -0.0725,-0.58949 -0.217752,-0.84164 -0.144992,-0.25241 -0.35269,-0.4519 -0.623094,-0.59928 -0.270139,-0.14711 -0.592137,-0.22092 -0.965729,-0.22092 -0.440002,0 -0.816769,0.0873 -1.130035,0.26246 a 1.768475,1.768475 0 0 0 -0.718079,0.73263 c -0.1651,0.31327 -0.247915,0.67839 -0.247915,1.09538 0,0.39661 0.08546,0.74559 0.256646,1.04748 a 1.8047229,1.8047229 0 0 0 0.713581,0.70406 c 0.3048,0.16775 0.658548,0.25135 1.060979,0.25135 z m -0.562769,-2.34897 a 3.4305875,3.4305875 0 0 1 -0.0063,-0.20928 c 0,-0.27411 0.02011,-0.48975 0.06059,-0.64717 0.04022,-0.15743 0.09181,-0.26908 0.155045,-0.3347 0.0635,-0.0656 0.13388,-0.0984 0.211402,-0.0984 0.100542,0 0.194734,0.086 0.282575,0.25824 0.08731,0.17198 0.131498,0.45773 0.131498,0.85725 0,0.12223 -0.05477,0.18335 -0.164041,0.18335 h -0.67019 z m 4.685771,2.34897 c 0.365125,0 0.686858,-0.0714 0.965729,-0.21431 0.278871,-0.14287 0.496094,-0.33284 0.651139,-0.5707 0.155311,-0.2376 0.232834,-0.49927 0.232834,-0.78476 0,-0.0556 -0.01005,-0.095 -0.03016,-0.11827 a 0.09339792,0.09339792 0 0 0 -0.07329,-0.0349 0.16933333,0.16933333 0 0 0 -0.07117,0.0196 c -0.02725,0.0132 -0.05821,0.0386 -0.0926,0.0767 -0.06033,0.18653 -0.178859,0.33231 -0.355865,0.43735 -0.176742,0.10478 -0.380206,0.15743 -0.610129,0.15743 -0.359304,0 -0.646906,-0.1233 -0.862542,-0.36962 -0.126206,-0.14447 -0.215635,-0.33682 -0.268023,-0.5768 l -0.0042,-0.0201 h 1.97141 c 0.124619,0 0.222515,-0.0331 0.293423,-0.099 l 0.0172,-0.0169 c 0.0717,-0.0773 0.107686,-0.18309 0.107686,-0.31724 0,-0.30903 -0.0725,-0.58949 -0.217752,-0.84164 -0.145257,-0.25241 -0.352955,-0.4519 -0.623094,-0.59928 -0.270404,-0.14711 -0.592402,-0.22092 -0.965994,-0.22092 -0.440002,0 -0.816504,0.0873 -1.129771,0.26246 a 1.768475,1.768475 0 0 0 -0.718079,0.73263 c -0.165365,0.31327 -0.247915,0.67839 -0.247915,1.09538 0,0.39661 0.08546,0.74559 0.256646,1.04748 a 1.8047229,1.8047229 0 0 0 0.713317,0.70406 c 0.3048,0.16775 0.658283,0.25135 1.060979,0.25135 z m -0.563298,-2.34897 a 3.4305875,3.4305875 0 0 1 -0.0061,-0.20928 c 0,-0.27411 0.02011,-0.48975 0.06032,-0.64717 0.04022,-0.15743 0.09208,-0.26908 0.155311,-0.3347 0.06324,-0.0656 0.133614,-0.0984 0.211137,-0.0984 0.100542,0 0.194998,0.086 0.282575,0.25824 0.08758,0.17198 0.131498,0.45773 0.131498,0.85725 0,0.12223 -0.0545,0.18335 -0.164041,0.18335 h -0.67019 z m 5.047985,2.26166 c 0.06879,0 0.121708,-0.0183 0.157427,-0.0548 a 0.193675,0.193675 0 0 0 0.05398,-0.14208 0.21695833,0.21695833 0 0 0 -0.03889,-0.12912 c -0.02593,-0.0362 -0.06879,-0.059 -0.129381,-0.0677 l -0.323321,-0.0656 a 0.17118541,0.17118541 0 0 1 -0.120914,-0.0897 c -0.02593,-0.0479 -0.03863,-0.11298 -0.03863,-0.19447 v -1.53934 c 0,-0.17198 0.01005,-0.31353 0.03016,-0.4244 0.02011,-0.11059 0.04948,-0.19314 0.08837,-0.24685 0.03863,-0.054 0.08414,-0.081 0.135731,-0.081 0.05186,0 0.08917,0.0188 0.112184,0.0569 0.02302,0.0378 0.03598,0.0902 0.03889,0.15743 l 0.0042,0.17462 c 0.0058,0.19844 0.05953,0.35163 0.16166,0.45932 0.102129,0.10795 0.259292,0.16193 0.472281,0.16193 0.218546,0 0.396875,-0.0789 0.534459,-0.23628 0.138112,-0.15742 0.207168,-0.40375 0.207168,-0.73898 0,-0.33814 -0.06614,-0.59028 -0.198437,-0.75671 -0.132292,-0.16616 -0.321998,-0.24923 -0.569119,-0.24923 -0.203994,0 -0.392377,0.0635 -0.564885,0.1905 -0.172509,0.12673 -0.31115,0.32041 -0.41619,0.58155 a 1.7274646,1.7274646 0 0 0 -0.04815,0.13626 l -0.0074,0.0249 -0.03281,-0.67945 c -0.0077,-0.0804 -0.0217,-0.13891 -0.0418,-0.17542 l -0.0079,-0.0127 c -0.02434,-0.0349 -0.06086,-0.0524 -0.109802,-0.0524 -0.0344,0 -0.0762,0.006 -0.125148,0.0175 a 1.3096875,1.3096875 0 0 0 -0.180975,0.0611 l -1.225021,0.35454 c -0.06879,0.0259 -0.11774,0.0574 -0.146315,0.0939 a 0.19579166,0.19579166 0 0 0 -0.04313,0.12436 0.16933333,0.16933333 0 0 0 0.02805,0.10054 c 0.01852,0.0265 0.04815,0.0513 0.08837,0.0746 l 0.112183,0.0132 a 0.1635125,0.1635125 0 0 1 0.07964,0.072 c 0.01587,0.0307 0.02381,0.081 0.02381,0.15081 v 2.22171 c 0,0.0873 -0.0071,0.15028 -0.0217,0.18785 a 0.14605,0.14605 0 0 1 -0.07752,0.0833 l -0.09922,0.0394 c -0.03731,0.0262 -0.06694,0.0545 -0.08837,0.0852 a 0.19658541,0.19658541 0 0 0 -0.03228,0.11589 c 0,0.0611 0.01799,0.10927 0.05371,0.1442 0.03598,0.0352 0.08572,0.0526 0.148961,0.0526 z m 3.605213,0.0786 c 0.42836,0 0.804333,-0.0889 1.127654,-0.2667 0.323321,-0.1778 0.576258,-0.4191 0.758828,-0.72363 0.18256,-0.3048 0.27384,-0.64955 0.27384,-1.03452 0,-0.40508 -0.0876,-0.76227 -0.263,-1.07157 a 1.8803937,1.8803937 0 0 0 -0.732891,-0.72575 c -0.313531,-0.17489 -0.679979,-0.26246 -1.099873,-0.26246 -0.42254,0 -0.796396,0.0905 -1.121304,0.27119 -0.324644,0.18071 -0.579173,0.42492 -0.763059,0.73263 -0.18415,0.30745 -0.27596,0.65353 -0.27596,1.03849 0,0.40244 0.08731,0.75671 0.262996,1.06284 a 1.8698104,1.8698104 0 0 0 0.735277,0.7194 c 0.314854,0.17356 0.680508,0.26008 1.097492,0.26008 z m 0.327554,-0.45482 c -0.0889,0.0175 -0.175948,-0.0217 -0.260879,-0.118 -0.08467,-0.0963 -0.1651,-0.25797 -0.2413,-0.48551 -0.0762,-0.22754 -0.148961,-0.52626 -0.218017,-0.89641 -0.06615,-0.37042 -0.103188,-0.67495 -0.111919,-0.91413 -0.0087,-0.23892 0.0085,-0.41963 0.05159,-0.5424 0.04313,-0.12224 0.109273,-0.19368 0.198437,-0.21431 0.08916,-0.0172 0.176213,0.0222 0.26088,0.11827 0.08467,0.0963 0.166158,0.25796 0.243681,0.48551 0.07752,0.22754 0.150812,0.52625 0.219869,0.8964 0.06906,0.37042 0.107156,0.67575 0.1143,0.91626 0.0071,0.24077 -0.01138,0.42201 -0.05609,0.54451 -0.04445,0.1225 -0.111125,0.19235 -0.200554,0.20981 z m 5.252508,0.46355 c 0.24156,0 0.44,-0.0444 0.59531,-0.13335 0.15505,-0.0889 0.27067,-0.19446 0.34687,-0.31697 0.0762,-0.1225 0.1143,-0.23468 0.1143,-0.33681 a 0.19870208,0.19870208 0 0 0 -0.028,-0.10927 0.085725,0.085725 0 0 0 -0.0754,-0.0437 0.08466667,0.08466667 0 0 0 -0.0389,0.009 0.08598958,0.08598958 0 0 0 -0.0302,0.0262 c -0.0143,0.0524 -0.0365,0.0889 -0.0667,0.10928 a 0.17012708,0.17012708 0 0 1 -0.0971,0.0307 c -0.0489,0 -0.0855,-0.0169 -0.11007,-0.0503 -0.0243,-0.0336 -0.0365,-0.0781 -0.0365,-0.13335 v -1.93305 c 0,-0.38497 -0.13018,-0.68289 -0.39026,-0.89429 -0.26035,-0.21167 -0.66781,-0.31723 -1.22238,-0.31723 -0.43127,0 -0.79163,0.054 -1.08056,0.16192 -0.28892,0.10795 -0.50588,0.24553 -0.65087,0.41328 -0.14552,0.16775 -0.21802,0.33867 -0.21802,0.51382 0,0.18653 0.054,0.32861 0.16166,0.42651 0.10795,0.0976 0.26379,0.14631 0.46805,0.14631 0.25003,0 0.44715,-0.0677 0.59081,-0.2032 0.14367,-0.13573 0.21564,-0.31141 0.21564,-0.52705 v -0.33231 c 0,-0.0818 0.0251,-0.145 0.0754,-0.1905 0.0503,-0.045 0.11271,-0.0675 0.18759,-0.0675 0.0804,0 0.14446,0.0299 0.19182,0.0894 0.0476,0.0598 0.0714,0.14076 0.0714,0.24288 l -2.7e-4,1.27477 -0.023,-0.005 a 1.4433021,1.4433021 0 0 0 -0.24077,-0.023 l -0.0466,-2.6e-4 c -0.61834,0 -1.07898,0.10477 -1.38219,0.31485 -0.30321,0.20982 -0.45508,0.50271 -0.45508,0.87895 0,0.28575 0.10424,0.52043 0.31274,0.70405 0.20849,0.18362 0.48524,0.27543 0.82999,0.27543 0.25877,0 0.50033,-0.0529 0.7247,-0.15954 0.16801,-0.0799 0.3048,-0.18468 0.4101,-0.31432 l 0.006,-0.008 0.006,0.0198 c 0.0331,0.0945 0.0937,0.17912 0.18204,0.254 l 0.0272,0.0222 c 0.15954,0.12382 0.3847,0.18573 0.67495,0.18573 z m -1.20729,-0.68209 c -0.1151,0 -0.20797,-0.0476 -0.27835,-0.14208 -0.0704,-0.0947 -0.10583,-0.23998 -0.10583,-0.43524 0,-0.204 0.0341,-0.35851 0.1016,-0.46355 0.0675,-0.10504 0.15743,-0.15743 0.26961,-0.15743 0.0662,0 0.12356,0.007 0.17251,0.0196 l 0.0212,0.007 v 1.12237 l -0.0138,0.008 c -0.046,0.0238 -0.0934,0.0376 -0.14235,0.041 z m 4.24762,0.69532 c 0.5117,0 0.90408,-0.118 1.17739,-0.35427 0.27305,-0.23601 0.40958,-0.55827 0.40958,-0.96653 0,-0.24765 -0.046,-0.46487 -0.13811,-0.65167 -0.0921,-0.18653 -0.25295,-0.35189 -0.48287,-0.49635 -0.23019,-0.1442 -0.55351,-0.28046 -0.97049,-0.40879 -0.15505,-0.0495 -0.27517,-0.0997 -0.35983,-0.15081 -0.0849,-0.0511 -0.14314,-0.10583 -0.17463,-0.16404 -0.0318,-0.0582 -0.0476,-0.12091 -0.0476,-0.18785 0,-0.0995 0.036,-0.17966 0.10795,-0.24077 0.0717,-0.0611 0.17806,-0.0918 0.31908,-0.0918 0.19553,0 0.38021,0.0656 0.55404,0.19685 0.17383,0.13123 0.36592,0.3556 0.57573,0.67336 0.0545,0.0672 0.10928,0.11589 0.16405,0.14658 0.0545,0.0307 0.10609,0.04 0.15504,0.0283 a 0.15187083,0.15187083 0 0 0 0.11218,-0.12012 c 0.0143,-0.0627 0.0114,-0.1524 -0.009,-0.26908 l -0.11218,-0.8046 c -0.0114,-0.0847 -0.0331,-0.1442 -0.0646,-0.17939 a 0.16060208,0.16060208 0 0 0 -0.12515,-0.0524 c -0.046,0 -0.10318,0.0159 -0.1725,0.0482 -0.0688,0.032 -0.13732,0.0648 -0.20479,0.0984 -0.0675,0.0333 -0.11854,0.0503 -0.15293,0.0503 -0.0318,0 -0.0786,-0.0175 -0.14023,-0.0526 -0.0619,-0.0349 -0.1487,-0.0699 -0.26088,-0.10477 -0.11218,-0.0352 -0.25744,-0.0526 -0.4355,-0.0526 -0.29634,0 -0.56277,0.054 -0.8001,0.16192 -0.23707,0.10795 -0.42413,0.26167 -0.56066,0.46143 -0.13652,0.19976 -0.20478,0.43789 -0.20478,0.71491 0,0.245 0.0511,0.45931 0.15319,0.64294 0.10213,0.18362 0.25797,0.34131 0.46778,0.47228 0.20982,0.13123 0.4744,0.23759 0.79375,0.31935 0.20664,0.0553 0.36566,0.11139 0.47625,0.16827 0.1106,0.0569 0.1868,0.11907 0.2286,0.18601 0.0418,0.0669 0.0624,0.14128 0.0624,0.22277 0,0.10795 -0.036,0.19685 -0.10769,0.26697 -0.072,0.0699 -0.18124,0.10477 -0.32782,0.10477 a 0.90408124,0.90408124 0 0 1 -0.39449,-0.0894 c -0.12515,-0.0598 -0.254,-0.16272 -0.38603,-0.30851 -0.13229,-0.14552 -0.28046,-0.34528 -0.44423,-0.59902 -0.0487,-0.0672 -0.10425,-0.11377 -0.1659,-0.14022 a 0.22225,0.22225 0 0 0 -0.18785,0.004 c -0.0601,0.0236 -0.099,0.073 -0.11642,0.1487 -0.0169,0.0759 -0.0127,0.16933 0.0132,0.27993 l 0.13361,0.87048 c 0.0201,0.0873 0.0489,0.14552 0.0863,0.17462 0.0373,0.0291 0.0775,0.0439 0.12065,0.0439 0.049,0 0.10848,-0.0159 0.17912,-0.0482 l 0.21114,-0.096 c 0.0706,-0.0323 0.12726,-0.0482 0.17039,-0.0482 0.0431,0 0.10001,0.0159 0.17039,0.0482 a 1.9870208,1.9870208 0 0 0 0.27596,0.096 c 0.11377,0.032 0.25665,0.0482 0.42916,0.0482 z m 3.41524,-0.0132 c 0.25876,0 0.48313,-0.0503 0.67283,-0.15081 a 1.1551708,1.1551708 0 0 0 0.45059,-0.41989 c 0.1106,-0.17913 0.17621,-0.38682 0.19632,-0.6231 0.003,-0.0669 -0.007,-0.11139 -0.028,-0.13335 a 0.06402917,0.06402917 0 0 0 -0.0757,-0.0153 c -0.0344,0.0524 -0.0704,0.10504 -0.10768,0.15743 -0.0373,0.0524 -0.0767,0.0997 -0.11854,0.14208 -0.0418,0.0423 -0.0884,0.0767 -0.14022,0.10292 -0.0516,0.0262 -0.10769,0.0392 -0.16828,0.0392 -0.14076,0 -0.24791,-0.0524 -0.3212,-0.15743 -0.0733,-0.10477 -0.10981,-0.2667 -0.10981,-0.48525 v -1.99416 h 0.64665 c 0.14684,0 0.25664,-0.0254 0.32914,-0.0757 l 0.0159,-0.0119 c 0.072,-0.0582 0.10795,-0.12832 0.10795,-0.20981 0,-0.0582 -0.0172,-0.10134 -0.0519,-0.12912 -0.0344,-0.0278 -0.0833,-0.0415 -0.14657,-0.0415 h -0.90144 v -0.78316 c 0,-0.0778 -0.0145,-0.13706 -0.0442,-0.1778 l -0.0116,-0.0146 c -0.0376,-0.0407 -0.0892,-0.0611 -0.15531,-0.0611 a 0.32014583,0.32014583 0 0 0 -0.17251,0.0545 0.74877082,0.74877082 0 0 0 -0.1725,0.15954 l -0.79772,0.6694 c -0.0489,0.0609 -0.0878,0.10186 -0.11642,0.12224 a 0.14313958,0.14313958 0 0 1 -0.082,0.0307 h -0.2114 a 0.22780625,0.22780625 0 0 0 -0.15955,0.059 0.1952625,0.1952625 0 0 0 -0.0645,0.15081 c 0,0.0497 0.007,0.0913 0.0214,0.12462 0.0146,0.0336 0.046,0.0622 0.095,0.0855 l 0.20267,0.0656 c 0.046,0.0204 0.0749,0.0466 0.0863,0.0786 0.0114,0.032 0.0172,0.0789 0.0172,0.14023 v 1.97644 c 0,0.45773 0.11007,0.79295 0.32994,1.00594 0.21987,0.21273 0.54848,0.31909 0.98531,0.31909 z m 3.49726,0 c 0.36513,0 0.68712,-0.0714 0.96599,-0.21431 0.27888,-0.14287 0.4961,-0.33284 0.65141,-0.5707 0.15504,-0.2376 0.23283,-0.49927 0.23283,-0.78476 0,-0.0556 -0.0101,-0.095 -0.0302,-0.11827 a 0.09339792,0.09339792 0 0 0 -0.0735,-0.0349 0.16933333,0.16933333 0 0 0 -0.0709,0.0196 c -0.0275,0.0132 -0.0582,0.0386 -0.0926,0.0767 -0.0608,0.18653 -0.17912,0.33231 -0.35613,0.43735 -0.17674,0.10478 -0.3802,0.15743 -0.61013,0.15743 -0.3593,0 -0.6469,-0.1233 -0.86254,-0.36962 -0.1262,-0.14447 -0.21563,-0.33682 -0.26802,-0.5768 l -0.004,-0.0201 h 1.97141 c 0.12488,0 0.22251,-0.0331 0.29342,-0.099 l 0.0172,-0.0169 c 0.0717,-0.0773 0.10768,-0.18309 0.10768,-0.31724 0,-0.30903 -0.0725,-0.58949 -0.21775,-0.84164 -0.14525,-0.25241 -0.35295,-0.4519 -0.62309,-0.59928 -0.27041,-0.14711 -0.59214,-0.22092 -0.966,-0.22092 -0.43973,0 -0.8165,0.0873 -1.12977,0.26246 a 1.768475,1.768475 0 0 0 -0.71808,0.73263 c -0.16536,0.31327 -0.24791,0.67839 -0.24791,1.09538 0,0.39661 0.0855,0.74559 0.25665,1.04748 a 1.8047229,1.8047229 0 0 0 0.71358,0.70406 c 0.3048,0.16775 0.65828,0.25135 1.06098,0.25135 z m -0.56303,-2.34897 a 3.4305875,3.4305875 0 0 1 -0.006,-0.20928 c 0,-0.27411 0.0201,-0.48975 0.0603,-0.64717 0.0402,-0.15743 0.0921,-0.26908 0.15531,-0.3347 0.0635,-0.0656 0.13361,-0.0984 0.2114,-0.0984 0.10054,0 0.19473,0.086 0.28231,0.25824 0.0878,0.17198 0.1315,0.45773 0.1315,0.85725 0,0.12223 -0.0545,0.18335 -0.16378,0.18335 h -0.67045 z m 5.04825,2.26166 c 0.0688,0 0.12118,-0.0183 0.15716,-0.0548 a 0.193675,0.193675 0 0 0 0.054,-0.14208 0.21695833,0.21695833 0 0 0 -0.0389,-0.12912 c -0.0259,-0.0362 -0.0688,-0.059 -0.12938,-0.0677 l -0.32332,-0.0656 a 0.17118541,0.17118541 0 0 1 -0.12092,-0.0897 c -0.0257,-0.0479 -0.0386,-0.11298 -0.0386,-0.19447 v -1.53934 c 0,-0.17198 0.0101,-0.31353 0.0302,-0.4244 0.0201,-0.11059 0.0495,-0.19314 0.0884,-0.24685 0.0389,-0.054 0.0841,-0.081 0.13573,-0.081 0.0519,0 0.0892,0.0188 0.11218,0.0569 0.023,0.0378 0.036,0.0902 0.0389,0.15743 l 0.004,0.17462 c 0.006,0.19844 0.0595,0.35163 0.16166,0.45932 0.10213,0.10795 0.25929,0.16193 0.47228,0.16193 0.21855,0 0.39688,-0.0789 0.53473,-0.23628 0.13811,-0.15742 0.2069,-0.40375 0.2069,-0.73898 0,-0.33814 -0.0661,-0.59028 -0.19844,-0.75671 -0.13229,-0.16616 -0.32173,-0.24923 -0.56885,-0.24923 -0.20426,0 -0.39264,0.0635 -0.56515,0.1905 -0.17251,0.12673 -0.31115,0.32041 -0.41619,0.58155 a 1.7274646,1.7274646 0 0 0 -0.0482,0.13626 l -0.007,0.0251 -0.0328,-0.67972 c -0.008,-0.0804 -0.0214,-0.13891 -0.0418,-0.17542 l -0.008,-0.0127 c -0.0244,-0.0349 -0.0609,-0.0524 -0.10981,-0.0524 -0.0344,0 -0.0762,0.006 -0.12514,0.0175 a 1.3096875,1.3096875 0 0 0 -0.18098,0.0611 l -1.22476,0.35454 c -0.0688,0.0259 -0.118,0.0574 -0.14657,0.0939 a 0.19579166,0.19579166 0 0 0 -0.0431,0.12436 0.16933333,0.16933333 0 0 0 0.028,0.10054 c 0.0185,0.0265 0.0482,0.0513 0.0884,0.0746 l 0.11219,0.0132 a 0.1635125,0.1635125 0 0 1 0.0796,0.072 c 0.0159,0.0307 0.0238,0.081 0.0238,0.15081 v 2.22171 c 0,0.0873 -0.007,0.15028 -0.0217,0.18785 a 0.14605,0.14605 0 0 1 -0.0775,0.0833 l -0.0992,0.0394 c -0.0373,0.0262 -0.0669,0.0545 -0.0884,0.0852 a 0.19658541,0.19658541 0 0 0 -0.0323,0.11589 c 0,0.0611 0.018,0.10927 0.0537,0.1442 0.036,0.0352 0.0857,0.0526 0.14896,0.0526 z m 3.36338,0.10054 c 0.51171,0 0.90408,-0.118 1.1774,-0.35427 0.27305,-0.23601 0.40957,-0.55827 0.40957,-0.96653 0,-0.24765 -0.046,-0.46487 -0.13811,-0.65167 -0.0918,-0.18653 -0.25294,-0.35189 -0.48287,-0.49635 -0.23018,-0.1442 -0.5535,-0.28046 -0.97022,-0.40879 -0.15531,-0.0495 -0.27517,-0.0997 -0.3601,-0.15081 -0.0847,-0.0511 -0.14288,-0.10583 -0.17463,-0.16404 -0.0318,-0.0582 -0.0476,-0.12091 -0.0476,-0.18785 0,-0.0995 0.036,-0.17966 0.10795,-0.24077 0.072,-0.0611 0.17833,-0.0918 0.31909,-0.0918 0.19552,0 0.3802,0.0656 0.55403,0.19685 0.1741,0.13123 0.36592,0.3556 0.57574,0.67336 0.0548,0.0672 0.10927,0.11589 0.16404,0.14658 0.0545,0.0307 0.10636,0.04 0.15505,0.0283 a 0.15187083,0.15187083 0 0 0 0.11218,-0.12012 c 0.0143,-0.0627 0.0116,-0.1524 -0.008,-0.26908 l -0.11218,-0.8046 c -0.0116,-0.0847 -0.0331,-0.1442 -0.0648,-0.17939 a 0.16060208,0.16060208 0 0 0 -0.12489,-0.0524 c -0.046,0 -0.10371,0.0159 -0.17251,0.0482 -0.069,0.032 -0.13758,0.0648 -0.20478,0.0984 -0.0677,0.0333 -0.1188,0.0503 -0.15346,0.0503 -0.0315,0 -0.0781,-0.0175 -0.13997,-0.0526 -0.0616,-0.0349 -0.14869,-0.0699 -0.26088,-0.10477 -0.11218,-0.0352 -0.25717,-0.0526 -0.4355,-0.0526 -0.29633,0 -0.56277,0.054 -0.79983,0.16192 -0.23734,0.10795 -0.42413,0.26167 -0.56092,0.46143 -0.13626,0.19976 -0.20452,0.43789 -0.20452,0.71491 0,0.245 0.0508,0.45931 0.15292,0.64294 0.10213,0.18362 0.25797,0.34131 0.46805,0.47228 0.20982,0.13123 0.47414,0.23759 0.79349,0.31935 0.2069,0.0553 0.36565,0.11139 0.47625,0.16827 0.11086,0.0569 0.18706,0.11907 0.2286,0.18601 0.0418,0.0669 0.0627,0.14128 0.0627,0.22277 0,0.10795 -0.036,0.19685 -0.10795,0.26697 -0.0717,0.0699 -0.18097,0.10477 -0.32755,0.10477 a 0.90408124,0.90408124 0 0 1 -0.39476,-0.0894 c -0.12488,-0.0598 -0.25373,-0.16272 -0.38603,-0.30851 -0.13229,-0.14552 -0.28019,-0.34528 -0.44397,-0.59902 -0.0489,-0.0672 -0.10424,-0.11377 -0.16615,-0.14022 a 0.22225,0.22225 0 0 0 -0.18759,0.004 c -0.0603,0.0236 -0.0992,0.073 -0.11642,0.1487 -0.0172,0.0759 -0.013,0.16933 0.013,0.27993 l 0.13362,0.87048 c 0.0201,0.0873 0.049,0.14552 0.0863,0.17462 0.0376,0.0291 0.0778,0.0439 0.12092,0.0439 0.0487,0 0.10848,-0.0159 0.17886,-0.0482 l 0.2114,-0.096 c 0.0704,-0.0323 0.127,-0.0482 0.17012,-0.0482 0.0431,0 0.10002,0.0159 0.1704,0.0482 a 1.9870208,1.9870208 0 0 0 0.27596,0.096 c 0.11377,0.032 0.25664,0.0482 0.42915,0.0482 z"
       fill="#333d4b"
       id="path833"
       style="fill-rule:nonzero;stroke-width:0.264583" />
  </g>
  <g
     inkscape:groupmode="layer"
     id="layer2"
     inkscape:label="Layer 2"
     style="display:inline"
     transform="translate(-95.816341,-121.41953)">
    <path
       d="m 101.66967,123.90084 c 0.76464,0.76464 0.63156,2.14312 -0.29792,3.07261 -0.44662,0.44635 -1.00886,0.72495 -1.584072,0.78448 -0.0767,0.008 -0.1524,0.0117 -0.22648,0.0117 -0.49477,0 -0.93636,-0.17357 -1.2618,-0.49901 -0.37465,-0.37412 -0.54768,-0.90276 -0.48657,-1.48828 0.0593,-0.57494 0.33788,-1.13744 0.78423,-1.58379 0.93001,-0.92922 2.308222,-1.06337 3.072612,-0.29766 z m -0.0476,0.0476 c -0.25427,0.30692 -0.44186,0.6567 -0.75433,0.91361 -0.33258,0.27331 -0.6985,0.37306 -1.100932,0.48948 -0.88318,0.25665 -1.31974,1.00303 -1.42055,1.87193 0.27596,-0.33153 0.47837,-0.703 0.82682,-0.96917 0.3048,-0.23284 0.63447,-0.32465 0.993252,-0.42281 0.90249,-0.24765 1.3507,-1.00039 1.45574,-1.88304 z m -2.236532,-1.73434 a 2.7974396,2.7974396 0 0 1 0.57283,0.8337 c -0.4445,0.0767 -0.87525,0.26247 -1.25677,0.54134 a 1.8970625,1.8970625 0 0 0 -0.48604,-0.22225 c -0.40191,-0.11642 -0.76809,-0.2159 -1.10067,-0.48948 -0.31221,-0.25691 -0.4998,-0.60748 -0.75459,-0.91387 0.10477,0.88265 0.55324,1.63565 1.45573,1.8833 0.1524,0.0415 0.29845,0.0847 0.4408,0.13521 -0.43021,0.45323 -0.71332,1.00541 -0.81227,1.57956 a 2.8064354,2.8064354 0 0 1 -0.8345,-0.57256 c -0.92815,-0.92948 -1.06203,-2.30796 -0.29712,-3.07261 0.76438,-0.76517 2.14259,-0.63182 3.07234,0.29766 z"
       fill="#0e8784"
       id="path835"
       style="fill-rule:nonzero;stroke-width:0.264583" />
  </g>
</svg>
